<svg xmlns="http://www.w3.org/2000/svg" width="512" height="512" viewBox="0 0 512 512">
  <defs>
    <linearGradient id="bg" x1="0" y1="0" x2="1" y2="1">
      <stop offset="0%" stop-color="#00D4C5"/>
      <stop offset="55%" stop-color="#FF6B9D"/>
      <stop offset="100%" stop-color="#FBC02D"/>
    </linearGradient>
  </defs>
  <rect width="512" height="512" rx="112" fill="url(#bg)"/>
  <g fill="#FFFFFF">
    <ellipse cx="176" cy="190" rx="42" ry="54" transform="rotate(-18 176 190)"/>
    <ellipse cx="256" cy="160" rx="42" ry="57"/>
    <ellipse cx="336" cy="190" rx="42" ry="54" transform="rotate(18 336 190)"/>
    <ellipse cx="392" cy="270" rx="36" ry="48" transform="rotate(35 392 270)"/>
    <path d="M256 250c-66 0-118 48-118 104 0 44 33 66 74 66 23 0 34-10 44-10s21 10 44 10c41 0 74-22 74-66 0-56-52-104-118-104z"/>
  </g>
</svg>
